<mxfile host="app.diagrams.net" agent="Mozilla/5.0 (Windows NT 10.0; Win64; x64) AppleWebKit/537.36 (KHTML, like Gecko) Chrome/135.0.0.0 Safari/537.36" version="26.2.14">
  <diagram name="Página-1" id="i3XG-5LFAZaPc7fLmrdt">
    <mxGraphModel dx="3174" dy="1329" grid="1" gridSize="10" guides="1" tooltips="1" connect="1" arrows="1" fold="1" page="1" pageScale="1" pageWidth="2000" pageHeight="1600" math="0" shadow="0">
      <root>
        <mxCell id="0" />
        <mxCell id="1" parent="0" />
        <mxCell id="octDAVzb81xytwGA-_7a-1" value="" style="rounded=1;whiteSpace=wrap;html=1;movable=0;resizable=0;rotatable=0;deletable=0;editable=0;locked=1;connectable=0;" parent="1" vertex="1">
          <mxGeometry x="340" y="200" width="1950" height="1230" as="geometry" />
        </mxCell>
        <mxCell id="octDAVzb81xytwGA-_7a-2" value="Caso de Uso - REPEXAME" style="text;html=1;align=center;verticalAlign=middle;whiteSpace=wrap;rounded=0;fontSize=40;" parent="1" vertex="1">
          <mxGeometry x="955" y="230" width="720" height="30" as="geometry" />
        </mxCell>
        <mxCell id="octDAVzb81xytwGA-_7a-3" value="Actor" style="shape=umlActor;verticalLabelPosition=bottom;verticalAlign=top;html=1;outlineConnect=0;" parent="1" vertex="1">
          <mxGeometry x="2370" y="580" width="120" height="200" as="geometry" />
        </mxCell>
        <mxCell id="octDAVzb81xytwGA-_7a-4" value="Actor" style="shape=umlActor;verticalLabelPosition=bottom;verticalAlign=top;html=1;outlineConnect=0;" parent="1" vertex="1">
          <mxGeometry x="130" y="620" width="120" height="200" as="geometry" />
        </mxCell>
        <mxCell id="octDAVzb81xytwGA-_7a-13" value="&lt;font style=&quot;font-size: 18px;&quot;&gt;Criar Exame&lt;/font&gt;" style="ellipse;whiteSpace=wrap;html=1;" parent="1" vertex="1">
          <mxGeometry x="1890" y="845" width="160" height="80" as="geometry" />
        </mxCell>
        <mxCell id="octDAVzb81xytwGA-_7a-24" value="" style="endArrow=none;html=1;rounded=0;" parent="1" edge="1" target="octDAVzb81xytwGA-_7a-3">
          <mxGeometry width="50" height="50" relative="1" as="geometry">
            <mxPoint x="2130" y="650" as="sourcePoint" />
            <mxPoint x="2350" y="730" as="targetPoint" />
          </mxGeometry>
        </mxCell>
        <mxCell id="octDAVzb81xytwGA-_7a-25" value="" style="endArrow=block;dashed=1;endFill=0;endSize=12;html=1;rounded=0;exitX=1;exitY=1;exitDx=0;exitDy=0;entryX=0.5;entryY=0;entryDx=0;entryDy=0;" parent="1" edge="1" target="octDAVzb81xytwGA-_7a-56" source="octDAVzb81xytwGA-_7a-52">
          <mxGeometry width="160" relative="1" as="geometry">
            <mxPoint x="2425" y="180" as="sourcePoint" />
            <mxPoint x="2410" y="330" as="targetPoint" />
          </mxGeometry>
        </mxCell>
        <mxCell id="octDAVzb81xytwGA-_7a-26" value="Extend" style="edgeLabel;html=1;align=center;verticalAlign=middle;resizable=0;points=[];fontSize=15;" parent="octDAVzb81xytwGA-_7a-25" vertex="1" connectable="0">
          <mxGeometry x="-0.0389" y="-1" relative="1" as="geometry">
            <mxPoint as="offset" />
          </mxGeometry>
        </mxCell>
        <mxCell id="octDAVzb81xytwGA-_7a-29" value="" style="endArrow=block;dashed=1;endFill=0;endSize=12;html=1;rounded=0;exitX=0;exitY=0;exitDx=0;exitDy=0;entryX=1;entryY=0.5;entryDx=0;entryDy=0;" parent="1" edge="1" target="octDAVzb81xytwGA-_7a-57" source="octDAVzb81xytwGA-_7a-52">
          <mxGeometry width="160" relative="1" as="geometry">
            <mxPoint x="2200" y="100" as="sourcePoint" />
            <mxPoint x="2310" y="200" as="targetPoint" />
          </mxGeometry>
        </mxCell>
        <mxCell id="octDAVzb81xytwGA-_7a-30" value="Includ" style="edgeLabel;html=1;align=center;verticalAlign=middle;resizable=0;points=[];fontSize=15;" parent="octDAVzb81xytwGA-_7a-29" vertex="1" connectable="0">
          <mxGeometry x="-0.0389" y="-1" relative="1" as="geometry">
            <mxPoint as="offset" />
          </mxGeometry>
        </mxCell>
        <mxCell id="octDAVzb81xytwGA-_7a-45" value="" style="rounded=0;whiteSpace=wrap;html=1;strokeColor=none;" parent="1" vertex="1">
          <mxGeometry x="2370" y="785" width="120" height="60" as="geometry" />
        </mxCell>
        <mxCell id="octDAVzb81xytwGA-_7a-46" value="&lt;font style=&quot;font-size: 25px;&quot;&gt;Professor&lt;/font&gt;" style="text;html=1;align=center;verticalAlign=middle;whiteSpace=wrap;rounded=0;" parent="1" vertex="1">
          <mxGeometry x="2400" y="790" width="60" height="30" as="geometry" />
        </mxCell>
        <mxCell id="octDAVzb81xytwGA-_7a-47" value="" style="rounded=0;whiteSpace=wrap;html=1;strokeColor=none;" parent="1" vertex="1">
          <mxGeometry x="130" y="820" width="120" height="60" as="geometry" />
        </mxCell>
        <mxCell id="octDAVzb81xytwGA-_7a-48" value="&lt;span style=&quot;font-size: 25px;&quot;&gt;Aluno&lt;/span&gt;" style="text;html=1;align=center;verticalAlign=middle;whiteSpace=wrap;rounded=0;" parent="1" vertex="1">
          <mxGeometry x="160" y="825" width="60" height="30" as="geometry" />
        </mxCell>
        <mxCell id="octDAVzb81xytwGA-_7a-49" value="&lt;font style=&quot;font-size: 18px;&quot;&gt;Realizar Exame&lt;/font&gt;" style="ellipse;whiteSpace=wrap;html=1;" parent="1" vertex="1">
          <mxGeometry x="510" y="685" width="160" height="80" as="geometry" />
        </mxCell>
        <mxCell id="octDAVzb81xytwGA-_7a-50" value="&lt;font style=&quot;font-size: 18px;&quot;&gt;Adicionar Questões&lt;/font&gt;" style="ellipse;whiteSpace=wrap;html=1;" parent="1" vertex="1">
          <mxGeometry x="1480" y="930" width="190" height="90" as="geometry" />
        </mxCell>
        <mxCell id="octDAVzb81xytwGA-_7a-51" value="&lt;font style=&quot;font-size: 18px;&quot;&gt;Dissertativa&lt;/font&gt;" style="ellipse;whiteSpace=wrap;html=1;" parent="1" vertex="1">
          <mxGeometry x="1610" y="680" width="160" height="80" as="geometry" />
        </mxCell>
        <mxCell id="octDAVzb81xytwGA-_7a-52" value="&lt;font style=&quot;font-size: 18px;&quot;&gt;Objetiva&lt;/font&gt;" style="ellipse;whiteSpace=wrap;html=1;" parent="1" vertex="1">
          <mxGeometry x="1630" y="470" width="160" height="80" as="geometry" />
        </mxCell>
        <mxCell id="octDAVzb81xytwGA-_7a-53" value="&lt;font style=&quot;font-size: 18px;&quot;&gt;Corrigir Exame&lt;/font&gt;" style="ellipse;whiteSpace=wrap;html=1;" parent="1" vertex="1">
          <mxGeometry x="1945" y="1110" width="160" height="80" as="geometry" />
        </mxCell>
        <mxCell id="octDAVzb81xytwGA-_7a-54" value="&lt;font style=&quot;font-size: 18px;&quot;&gt;Definir Criterio&lt;/font&gt;" style="ellipse;whiteSpace=wrap;html=1;" parent="1" vertex="1">
          <mxGeometry x="1280" y="680" width="160" height="80" as="geometry" />
        </mxCell>
        <mxCell id="octDAVzb81xytwGA-_7a-55" value="&lt;font style=&quot;font-size: 18px;&quot;&gt;Responder Folha Resposta&lt;/font&gt;" style="ellipse;whiteSpace=wrap;html=1;" parent="1" vertex="1">
          <mxGeometry x="800" y="900" width="190" height="90" as="geometry" />
        </mxCell>
        <mxCell id="octDAVzb81xytwGA-_7a-56" value="&lt;font style=&quot;font-size: 18px;&quot;&gt;Criar Questão&lt;/font&gt;" style="ellipse;whiteSpace=wrap;html=1;" parent="1" vertex="1">
          <mxGeometry x="1950" y="600" width="160" height="80" as="geometry" />
        </mxCell>
        <mxCell id="octDAVzb81xytwGA-_7a-57" value="&lt;font style=&quot;font-size: 18px;&quot;&gt;Adicionar Alternativas&lt;/font&gt;" style="ellipse;whiteSpace=wrap;html=1;" parent="1" vertex="1">
          <mxGeometry x="1240" y="430" width="190" height="90" as="geometry" />
        </mxCell>
        <mxCell id="octDAVzb81xytwGA-_7a-58" value="&lt;font style=&quot;font-size: 18px;&quot;&gt;Definir Duração Total&lt;/font&gt;" style="ellipse;whiteSpace=wrap;html=1;" parent="1" vertex="1">
          <mxGeometry x="830" y="620" width="160" height="90" as="geometry" />
        </mxCell>
        <mxCell id="octDAVzb81xytwGA-_7a-59" value="&lt;span style=&quot;font-size: 18px;&quot;&gt;Entregar Menção ao Aluno&lt;/span&gt;" style="ellipse;whiteSpace=wrap;html=1;" parent="1" vertex="1">
          <mxGeometry x="1560" y="1210" width="180" height="90" as="geometry" />
        </mxCell>
        <mxCell id="bPDOmTICEGwl-tQWz5b4-1" value="" style="endArrow=block;dashed=1;endFill=0;endSize=12;html=1;rounded=0;exitX=0;exitY=0.5;exitDx=0;exitDy=0;" edge="1" parent="1" source="octDAVzb81xytwGA-_7a-51" target="octDAVzb81xytwGA-_7a-54">
          <mxGeometry width="160" relative="1" as="geometry">
            <mxPoint x="2023" y="382" as="sourcePoint" />
            <mxPoint x="1922" y="347" as="targetPoint" />
          </mxGeometry>
        </mxCell>
        <mxCell id="bPDOmTICEGwl-tQWz5b4-2" value="Includ" style="edgeLabel;html=1;align=center;verticalAlign=middle;resizable=0;points=[];fontSize=15;" vertex="1" connectable="0" parent="bPDOmTICEGwl-tQWz5b4-1">
          <mxGeometry x="-0.0389" y="-1" relative="1" as="geometry">
            <mxPoint as="offset" />
          </mxGeometry>
        </mxCell>
        <mxCell id="bPDOmTICEGwl-tQWz5b4-3" value="" style="endArrow=block;dashed=1;endFill=0;endSize=12;html=1;rounded=0;exitX=1;exitY=0.5;exitDx=0;exitDy=0;entryX=0;entryY=0.5;entryDx=0;entryDy=0;" edge="1" parent="1" source="octDAVzb81xytwGA-_7a-51" target="octDAVzb81xytwGA-_7a-56">
          <mxGeometry width="160" relative="1" as="geometry">
            <mxPoint x="2080" y="450" as="sourcePoint" />
            <mxPoint x="2030" y="550" as="targetPoint" />
          </mxGeometry>
        </mxCell>
        <mxCell id="bPDOmTICEGwl-tQWz5b4-4" value="Extend" style="edgeLabel;html=1;align=center;verticalAlign=middle;resizable=0;points=[];fontSize=15;" vertex="1" connectable="0" parent="bPDOmTICEGwl-tQWz5b4-3">
          <mxGeometry x="-0.0389" y="-1" relative="1" as="geometry">
            <mxPoint as="offset" />
          </mxGeometry>
        </mxCell>
        <mxCell id="bPDOmTICEGwl-tQWz5b4-5" value="" style="endArrow=none;html=1;rounded=0;" edge="1" parent="1">
          <mxGeometry width="50" height="50" relative="1" as="geometry">
            <mxPoint x="2060" y="860" as="sourcePoint" />
            <mxPoint x="2340" y="770" as="targetPoint" />
          </mxGeometry>
        </mxCell>
        <mxCell id="bPDOmTICEGwl-tQWz5b4-6" value="" style="endArrow=block;dashed=1;endFill=0;endSize=12;html=1;rounded=0;exitX=1;exitY=0.5;exitDx=0;exitDy=0;entryX=0;entryY=1;entryDx=0;entryDy=0;" edge="1" parent="1" source="octDAVzb81xytwGA-_7a-50" target="octDAVzb81xytwGA-_7a-13">
          <mxGeometry width="160" relative="1" as="geometry">
            <mxPoint x="1780" y="630" as="sourcePoint" />
            <mxPoint x="1950" y="590" as="targetPoint" />
          </mxGeometry>
        </mxCell>
        <mxCell id="bPDOmTICEGwl-tQWz5b4-7" value="Extend" style="edgeLabel;html=1;align=center;verticalAlign=middle;resizable=0;points=[];fontSize=15;" vertex="1" connectable="0" parent="bPDOmTICEGwl-tQWz5b4-6">
          <mxGeometry x="-0.0389" y="-1" relative="1" as="geometry">
            <mxPoint as="offset" />
          </mxGeometry>
        </mxCell>
        <mxCell id="bPDOmTICEGwl-tQWz5b4-8" value="" style="endArrow=none;html=1;rounded=0;" edge="1" parent="1">
          <mxGeometry width="50" height="50" relative="1" as="geometry">
            <mxPoint x="2090" y="1090" as="sourcePoint" />
            <mxPoint x="2360" y="830" as="targetPoint" />
          </mxGeometry>
        </mxCell>
        <mxCell id="bPDOmTICEGwl-tQWz5b4-9" value="" style="endArrow=block;dashed=1;endFill=0;endSize=12;html=1;rounded=0;exitX=0;exitY=1;exitDx=0;exitDy=0;entryX=1;entryY=0.5;entryDx=0;entryDy=0;" edge="1" parent="1" source="octDAVzb81xytwGA-_7a-53" target="octDAVzb81xytwGA-_7a-59">
          <mxGeometry width="160" relative="1" as="geometry">
            <mxPoint x="1903" y="1127" as="sourcePoint" />
            <mxPoint x="1700" y="1100" as="targetPoint" />
          </mxGeometry>
        </mxCell>
        <mxCell id="bPDOmTICEGwl-tQWz5b4-10" value="Includ" style="edgeLabel;html=1;align=center;verticalAlign=middle;resizable=0;points=[];fontSize=15;" vertex="1" connectable="0" parent="bPDOmTICEGwl-tQWz5b4-9">
          <mxGeometry x="-0.0389" y="-1" relative="1" as="geometry">
            <mxPoint as="offset" />
          </mxGeometry>
        </mxCell>
        <mxCell id="bPDOmTICEGwl-tQWz5b4-12" value="" style="endArrow=none;html=1;rounded=0;" edge="1" parent="1" source="octDAVzb81xytwGA-_7a-4">
          <mxGeometry width="50" height="50" relative="1" as="geometry">
            <mxPoint x="240" y="1025" as="sourcePoint" />
            <mxPoint x="490" y="720" as="targetPoint" />
          </mxGeometry>
        </mxCell>
        <mxCell id="bPDOmTICEGwl-tQWz5b4-14" value="" style="endArrow=block;dashed=1;endFill=0;endSize=12;html=1;rounded=0;exitX=0;exitY=0.5;exitDx=0;exitDy=0;entryX=1;entryY=0.5;entryDx=0;entryDy=0;" edge="1" parent="1" source="octDAVzb81xytwGA-_7a-58" target="octDAVzb81xytwGA-_7a-49">
          <mxGeometry width="160" relative="1" as="geometry">
            <mxPoint x="843" y="792" as="sourcePoint" />
            <mxPoint x="620" y="785" as="targetPoint" />
          </mxGeometry>
        </mxCell>
        <mxCell id="bPDOmTICEGwl-tQWz5b4-15" value="Includ" style="edgeLabel;html=1;align=center;verticalAlign=middle;resizable=0;points=[];fontSize=15;" vertex="1" connectable="0" parent="bPDOmTICEGwl-tQWz5b4-14">
          <mxGeometry x="-0.0389" y="-1" relative="1" as="geometry">
            <mxPoint as="offset" />
          </mxGeometry>
        </mxCell>
        <mxCell id="bPDOmTICEGwl-tQWz5b4-16" value="" style="endArrow=block;dashed=1;endFill=0;endSize=12;html=1;rounded=0;exitX=0.05;exitY=0.328;exitDx=0;exitDy=0;exitPerimeter=0;" edge="1" parent="1" source="octDAVzb81xytwGA-_7a-55" target="octDAVzb81xytwGA-_7a-49">
          <mxGeometry width="160" relative="1" as="geometry">
            <mxPoint x="840" y="675" as="sourcePoint" />
            <mxPoint x="680" y="735" as="targetPoint" />
          </mxGeometry>
        </mxCell>
        <mxCell id="bPDOmTICEGwl-tQWz5b4-17" value="Includ" style="edgeLabel;html=1;align=center;verticalAlign=middle;resizable=0;points=[];fontSize=15;" vertex="1" connectable="0" parent="bPDOmTICEGwl-tQWz5b4-16">
          <mxGeometry x="-0.0389" y="-1" relative="1" as="geometry">
            <mxPoint as="offset" />
          </mxGeometry>
        </mxCell>
      </root>
    </mxGraphModel>
  </diagram>
</mxfile>
